<?xml version="1.0" encoding="UTF-8" standalone="no"?>
<!-- Created with Inkscape (http://www.inkscape.org/) -->

<svg
   xmlns:dc="http://purl.org/dc/elements/1.1/"
   xmlns:cc="http://creativecommons.org/ns#"
   xmlns:rdf="http://www.w3.org/1999/02/22-rdf-syntax-ns#"
   xmlns:svg="http://www.w3.org/2000/svg"
   xmlns="http://www.w3.org/2000/svg"
   xmlns:sodipodi="http://sodipodi.sourceforge.net/DTD/sodipodi-0.dtd"
   xmlns:inkscape="http://www.inkscape.org/namespaces/inkscape"
   width="58mm"
   height="57mm"
   viewBox="0 0 58 57"
   version="1.1"
   id="svg1747"
   inkscape:version="0.92.3 (2405546, 2018-03-11)"
   sodipodi:docname="boneca-sentada.svg">
  <defs
     id="defs1741" />
  <sodipodi:namedview
     id="base"
     pagecolor="#ffffff"
     bordercolor="#666666"
     borderopacity="1.0"
     inkscape:pageopacity="0.0"
     inkscape:pageshadow="2"
     inkscape:zoom="1.4"
     inkscape:cx="4.5663208"
     inkscape:cy="232.59344"
     inkscape:document-units="mm"
     inkscape:current-layer="layer1"
     showgrid="false"
     inkscape:window-width="1920"
     inkscape:window-height="986"
     inkscape:window-x="-11"
     inkscape:window-y="-11"
     inkscape:window-maximized="1" />
  <metadata
     id="metadata1744">
    <rdf:RDF>
      <cc:Work
         rdf:about="">
        <dc:format>image/svg+xml</dc:format>
        <dc:type
           rdf:resource="http://purl.org/dc/dcmitype/StillImage" />
        <dc:title></dc:title>
      </cc:Work>
    </rdf:RDF>
  </metadata>
  <g
     inkscape:label="Layer 1"
     inkscape:groupmode="layer"
     id="layer1"
     transform="translate(0,-240)">
    <g
       id="g2511"
       transform="translate(36.844476,128.73809)">
      <path
         d="m -4.6737701,114.44936 c -0.263879,0.58455 -0.147814,1.26012 -0.07056,1.89689 0.07726,0.63676 0.0889,1.34972 -0.324908,1.83973 -0.408165,0.48401 -1.105252,0.60078 -1.613607,0.97825 -0.497417,0.36901 -0.788104,0.99907 -0.746125,1.61678 0.02893,0.42616 0.190855,0.90629 -0.06949,1.24496 -0.134763,0.17568 -0.353132,0.26211 -0.56233,0.33408 -0.452967,0.15628 -0.918633,0.28328 -1.34761,0.49741 -0.428977,0.21379 -0.8272649,0.52741 -1.0368149,0.95815 -0.295627,0.60783 -0.17145,1.32891 -0.0099,1.98473 0.159457,0.64946 0.384882,1.34302 0.9359189,1.7212 0.413104,0.28328 0.937683,0.33725 1.437923,0.35172 1.461206,0.042 2.929818,-0.18309 4.311298,-0.66111 0.869243,-0.30056 1.732492,-0.72249 2.317395,-1.43227 0.91793004,-1.11408 0.97190504,-2.69452 0.85372304,-4.13385 -0.066645,-0.80787 -0.187646,-1.65065 -0.66319304,-2.30717 -0.4699,-0.64911 -1.242483,-1.0347 -2.033058,-1.16664 -0.790575,-0.13194 -0.595135,-3.89219 -1.378654,-3.72286"
         style="fill:#aa00d4;fill-opacity:0.99567099;fill-rule:nonzero;stroke:none;stroke-width:0.03527778"
         id="path300"
         inkscape:connector-curvature="0" />
      <path
         d="m 1.4800839,119.57134 c 0.76059,-1.00683 1.14159,-2.29306 1.051983,-3.55177 -0.08925,-1.25836 -0.648403,-2.47791 -1.54340096,-3.36726"
         style="fill:#aa00d4;fill-opacity:1;fill-rule:nonzero;stroke:none;stroke-width:0.03527778"
         id="path302"
         inkscape:connector-curvature="0" />
      <path
         d="m -17.52864,152.08863 -2.990144,15.07419 h 1.38818 l 4.655961,-13.44153 -3.053997,-1.63266"
         style="fill:#a98675;fill-opacity:1;fill-rule:nonzero;stroke:none;stroke-width:0.03527778"
         id="path304"
         inkscape:connector-curvature="0" />
      <path
         d="m 4.8939159,152.22586 3.945114,14.67591 h 1.3444361 l -1.7335501,-17.04834 -3.556,2.37243"
         style="fill:#a98675;fill-opacity:1;fill-rule:nonzero;stroke:none;stroke-width:0.03527778"
         id="path306"
         inkscape:connector-curvature="0" />
      <path
         d="m -20.757967,149.34367 c 3.930649,4.29083 9.987843,6.36552 15.7906839,5.93513 5.80284204,-0.43039 11.302649,-3.21416 15.5067001,-7.23794 4.2037,-4.02308 7.167386,-9.22549 9.062157,-14.72706 0.646287,-1.87643 1.178629,-3.82835 1.128183,-5.81202 -0.05115,-1.98331 -0.751065,-4.02131 -2.236613,-5.33647 -2.65571,-2.35091 -6.848472,-1.70673 -9.9970141,-0.0744 -4.301421,2.23062 -7.75088096,6.05932 -9.522179,10.56958 -0.879475,2.23979 -1.356784,4.62809 -2.333271,6.82731 -0.976841,2.19921 -2.595388,4.28484 -4.888089,5.01544 -1.609374,0.51329 -3.3527999,0.30162 -5.0186169,0.018 -1.665111,-0.28328 -3.358797,-0.63535 -5.029905,-0.38664 -1.671461,0.24835 -5.594703,0.98989 -2.462036,5.20911"
         style="fill:#fcd8bc;fill-opacity:1;fill-rule:nonzero;stroke:none;stroke-width:0.03527778"
         id="path308"
         inkscape:connector-curvature="0" />
      <path
         d="m -7.1880181,140.22189 c 0,0 -17.3146849,-4.87609 -20.7274579,0.80504 -3.412772,5.68149 -5.184422,22.80391 -5.184422,22.80391 l 3.831872,1.22943 c 0,0 5.673373,-19.20946 7.755467,-19.84798 2.081741,-0.63853 15.5913659,1.49189 15.5913659,1.49189 l -1.266825,-6.48229"
         style="fill:#f47070;fill-opacity:1;fill-rule:nonzero;stroke:none;stroke-width:0.03527778"
         id="path310"
         inkscape:connector-curvature="0" />
      <path
         d="m -33.099898,163.83084 c 0,0 -3.990622,-0.29598 -3.224388,0.24059 0.766233,0.53658 6.900333,2.01401 6.900333,2.01401 l 0.167569,-1.14512 -3.843514,-1.10948"
         style="fill:#f03f6a;fill-opacity:1;fill-rule:nonzero;stroke:none;stroke-width:0.03527778"
         id="path312"
         inkscape:connector-curvature="0" />
      <path
         d="m -18.830037,140.87312 0.808919,-3.05858 c 4.337756,0.37817 8.8141519,1.73707 13.3318249,3.3849 l -14.1407439,-0.32632"
         style="fill:#2c4497;fill-opacity:1;fill-rule:nonzero;stroke:none;stroke-width:0.03527778"
         id="path314"
         inkscape:connector-curvature="0" />
      <path
         d="m -4.0553511,124.15039 c 0,0 -3.21945,-0.48824 -4.331407,5.06342 -1.603726,8.00312 -10.6881069,2.91113 -10.6881069,2.91113 l -2.949575,1.85032 c 0,0 4.803422,5.74181 12.0339559,3.24167 7.230533,-2.49978 5.935133,-13.06654 5.935133,-13.06654"
         style="fill:#f89d87;fill-opacity:1;fill-rule:nonzero;stroke:none;stroke-width:0.03527778"
         id="path316"
         inkscape:connector-curvature="0" />
      <path
         d="m 4.0370169,130.74099 0.108305,4.20229 0.364067,7.85883 c -2.90689,1.36137 -6.920442,1.00436 -10.946342,1.3275 1.294342,-3.76237 1.931104,-7.57943 0.893233,-11.53548 0,0 -1.417108,-0.88724 -0.668163,-1.77553 0.936625,-1.11054 1.200505,-2.11455 1.200505,-2.11455 l 8.720667,0.81562"
         style="fill:#f03f6a;fill-opacity:1;fill-rule:nonzero;stroke:none;stroke-width:0.03527778"
         id="path318"
         inkscape:connector-curvature="0" />
      <path
         d="m -2.7373741,124.01211 c 0.08185,-0.45473 -0.08678,-2.36961 -0.08678,-2.36961 0,0 -1.745191,-0.19967 -1.83656,-1.93252 -0.09137,-1.73284 0.04868,-5.72664 0.04868,-5.72664 l 3.194401,-1.52823 3.085749,2.67194 -0.212374,8.66492 -4.193116,0.22014"
         style="fill:#f89d87;fill-opacity:1;fill-rule:nonzero;stroke:none;stroke-width:0.03527778"
         id="path320"
         inkscape:connector-curvature="0" />
      <path
         d="m -4.2892431,116.89799 c -0.0011,0.12206 0.09737,0.22225 0.219782,0.22331 0.122766,10e-4 0.222602,-0.0974 0.22366,-0.21978 0.0011,-0.12242 -0.09737,-0.22261 -0.219782,-0.22331 -0.122412,-0.001 -0.222601,0.0974 -0.22366,0.21978"
         style="fill:#201e3c;fill-opacity:1;fill-rule:nonzero;stroke:none;stroke-width:0.03527778"
         id="path322"
         inkscape:connector-curvature="0" />
      <path
         d="m -4.5019681,116.65422 c 0.02822,0.0289 0.193323,-0.10901 0.432152,-0.11959 0.238832,-0.0141 0.416983,0.10583 0.442383,0.0741 0.01236,-0.0141 -0.01693,-0.0674 -0.0949,-0.12206 -0.07691,-0.054 -0.206375,-0.10407 -0.355248,-0.096 -0.148519,0.008 -0.272344,0.0709 -0.342548,0.13265 -0.07197,0.0624 -0.0956,0.11818 -0.08184,0.13088"
         style="fill:#201e3c;fill-opacity:1;fill-rule:nonzero;stroke:none;stroke-width:0.03527778"
         id="path324"
         inkscape:connector-curvature="0" />
      <path
         d="m -1.7203161,116.91986 c -0.0011,0.12242 0.09737,0.22225 0.219782,0.22331 0.122766,0.001 0.222601,-0.0974 0.22366,-0.21978 0.0011,-0.12241 -0.09737,-0.2226 -0.219779,-0.22366 -0.122415,-7.2e-4 -0.222605,0.0974 -0.223663,0.22013"
         style="fill:#201e3c;fill-opacity:1;fill-rule:nonzero;stroke:none;stroke-width:0.03527778"
         id="path326"
         inkscape:connector-curvature="0" />
      <path
         d="m -1.8561341,116.6768 c 0.02858,0.0289 0.193323,-0.10901 0.432151,-0.11959 0.238832,-0.0145 0.416984,0.10548 0.44238404,0.0737 0.01236,-0.0141 -0.01693,-0.067 -0.0949,-0.12171 -0.07691,-0.054 -0.206375,-0.10407 -0.355248,-0.0963 -0.148518,0.008 -0.271991,0.0713 -0.342548,0.133 -0.07161,0.0624 -0.0956,0.11818 -0.08184,0.13088"
         style="fill:#201e3c;fill-opacity:1;fill-rule:nonzero;stroke:none;stroke-width:0.03527778"
         id="path328"
         inkscape:connector-curvature="0" />
      <path
         d="m -2.7341991,118.68551 c -2.65e-4,0.0124 -0.150635,0.0166 -0.392994,0.0134 -0.02999,-7.1e-4 -0.06421,0 -0.102658,-0.0102 -0.03845,-0.009 -0.0822,-0.0402 -0.09913,-0.0854 -0.0321,-0.0907 0.0046,-0.17357 0.02646,-0.2473 0.05045,-0.15628 0.104423,-0.32173 0.160866,-0.4953 0.116417,-0.35137 0.226484,-0.6671 0.310799,-0.89464 0.08361,-0.22755 0.141464,-0.36619 0.153106,-0.36231 0.01164,0.004 -0.02469,0.14958 -0.09313,0.38241 -0.06915,0.23213 -0.169688,0.55175 -0.286105,0.90241 -0.05891,0.17286 -0.114652,0.33796 -0.167568,0.49354 -0.02752,0.0751 -0.05186,0.14605 -0.03493,0.19438 0.01341,0.0469 0.07479,0.0557 0.135466,0.0593 0.2413,0.0194 0.390525,0.0374 0.389819,0.0498"
         style="fill:#201e3c;fill-opacity:1;fill-rule:nonzero;stroke:none;stroke-width:0.03527778"
         id="path330"
         inkscape:connector-curvature="0" />
      <path
         d="m -0.87047406,119.16706 c -0.01447,0 -0.02893,0 -0.04339,-3.5e-4 -0.36830004,-0.012 -0.67062904,-0.15593 -0.67521704,-0.35348 -0.0046,-0.1898 0.283988,-0.36089 0.65193404,-0.36089 0.01236,0 0.02506,3.4e-4 0.0374,7.1e-4 0.385585,0.0113 0.686858,0.20567 0.67451,0.40146 -0.01164,0.18944 -0.296333,0.31256 -0.645231,0.31256"
         style="fill:#f78f7f;fill-opacity:1;fill-rule:nonzero;stroke:none;stroke-width:0.03527778"
         id="path332"
         inkscape:connector-curvature="0" />
      <path
         d="m -1.9161081,118.90741 c 0.01728,-0.0194 -0.701675,0.40217 -1.18886,0.39829 0,0 0.296685,0.43427 0.789517,0.23107 0.511175,-0.21096 0.399343,-0.62936 0.399343,-0.62936"
         style="fill:#f0e7df;fill-opacity:1;fill-rule:nonzero;stroke:none;stroke-width:0.03527778"
         id="path334"
         inkscape:connector-curvature="0" />
      <path
         d="m -2.8241581,121.6425 c 0,0 1.166284,0.0229 2.30152404,-0.75565 0,0 -0.53093204,1.26753 -2.26730204,1.1811 l -0.034222,-0.42545"
         style="fill:#f47070;fill-opacity:1;fill-rule:nonzero;stroke:none;stroke-width:0.03527778"
         id="path336"
         inkscape:connector-curvature="0" />
      <path
         d="m 1.5961489,117.74042 c 0.20461,0.10619 0.457552,0.11466 0.668867,0.0226 0.211666,-0.0924 0.377118,-0.28328 0.438501,-0.50553 0.03775,-0.13758 0.03563,-0.29245 -0.03598,-0.41628 -0.09631,-0.16651 -0.29986,-0.2473 -0.492477,-0.248 -0.192265,-7.2e-4 -0.377825,0.0649 -0.559152,0.12947"
         style="fill:#f89d87;fill-opacity:1;fill-rule:nonzero;stroke:none;stroke-width:0.03527778"
         id="path338"
         inkscape:connector-curvature="0" />
      <path
         d="m -0.83801806,116.27005 c 0.02469,-0.002 0.03669,0.11782 -0.06068,0.21237 -0.09596,0.0952 -0.21625404,0.0818 -0.21307904,0.0568 -0.0011,-0.025 0.08114,-0.0497 0.15028304,-0.12065 0.07232,-0.0681 0.09842,-0.15028 0.123473,-0.14851"
         style="fill:#201e3c;fill-opacity:1;fill-rule:nonzero;stroke:none;stroke-width:0.03527778"
         id="path340"
         inkscape:connector-curvature="0" />
      <path
         d="m 4.3368799,142.77636 c 0,0 0.403225,8.41269 -6.619875,8.64975 l 1.68169204,-9.65376 4.93818296,1.00401"
         style="fill:#2c4497;fill-opacity:1;fill-rule:nonzero;stroke:none;stroke-width:0.03527778"
         id="path342"
         inkscape:connector-curvature="0" />
      <path
         d="m -3.6299011,142.31916 c 0,0 -22.2765049,-3.60398 -24.4891269,0.93768 -2.213328,4.54166 -0.207434,23.64493 -0.207434,23.64493 l 4.335639,-0.37606 c 0,0 0.760942,-17.88372 1.786467,-18.61362 1.025172,-0.73025 19.0746949,3.5366 20.5517729,3.33058 1.65100004,-0.23036 7.38858,-6.7497 -1.977318,-8.92351"
         style="fill:#f89d87;fill-opacity:1;fill-rule:nonzero;stroke:none;stroke-width:0.03527778"
         id="path344"
         inkscape:connector-curvature="0" />
      <path
         d="m -27.950753,166.57016 c 0,0 -3.890786,0.93592 -2.997553,1.21285 0.893586,0.27728 6.892925,-0.16651 6.892925,-0.16651 l 0.14358,-1.61643 -4.038952,0.57009"
         style="fill:#f03f6a;fill-opacity:1;fill-rule:nonzero;stroke:none;stroke-width:0.03527778"
         id="path346"
         inkscape:connector-curvature="0" />
      <path
         d="m -18.862493,132.25582 -0.625827,-0.53481 c 0,0 -0.430742,-0.26247 -1.070681,-0.87772 -0.166158,-0.15945 -0.301978,-0.34783 -0.404989,-0.55386 -0.124883,-0.24976 -0.277283,-0.58843 -0.303036,-0.79974 -0.0321,-0.26141 -0.365125,-0.3482 -0.482247,-0.13935 -0.116769,0.20884 -0.04621,0.93169 0.399344,1.65347 0.445912,0.72178 -0.814916,0.28328 -1.277408,0.13158 -0.462139,-0.15134 -1.914878,-0.55315 -2.074333,-0.44767 -0.233539,0.15416 -0.111125,0.43286 0.354189,0.57326 0.470958,0.14253 1.831269,0.6604 1.739194,0.901 -0.09031,0.23671 -2.433461,-0.56692 -2.433461,-0.56692 0,0 -0.473075,-0.25294 -0.588433,0.0215 -0.208139,0.4946 2.345619,1.16523 2.590447,1.22309 0.170039,0.0402 0.07973,0.3048 -0.100542,0.25188 -0.185561,-0.0543 -2.318808,-0.85584 -2.535414,-0.35454 -0.166158,0.38488 2.0955,0.5715 2.445809,0.98354 0.350308,0.4124 -1.701095,-0.31573 -1.844675,0.0582 -0.05362,0.13935 -0.07408,0.25083 1.164166,0.49883 1.267884,0.254 4.81577,0.38276 4.81577,0.38276 l 0.206375,-2.44651"
         style="fill:#f89d87;fill-opacity:1;fill-rule:nonzero;stroke:none;stroke-width:0.03527778"
         id="path348"
         inkscape:connector-curvature="0" />
      <path
         d="m -5.0501841,129.14784 0.437091,-4.97346 1.349727,-0.30092 4.19311704,-0.22048 c 0,0 2.56081496,-0.1898 3.44417096,0.60219 0.88406,0.79163 -0.02681,6.43184 -0.02681,6.43184 l -9.397293,-1.53917"
         style="fill:#f03f6a;fill-opacity:1;fill-rule:nonzero;stroke:none;stroke-width:0.03527778"
         id="path350"
         inkscape:connector-curvature="0" />
      <path
         d="m 2.3973069,123.66321 c 0,0 5.374217,-1.1296 4.866923,7.93503 -0.517173,9.23184 -14.513983,10.6299 -14.513983,10.6299 l -0.280813,-3.46181 c 0,0 10.066163,-2.72344 10.823575,-6.56131 0.757415,-3.83787 -0.895702,-8.54181 -0.895702,-8.54181"
         style="fill:#f89d87;fill-opacity:1;fill-rule:nonzero;stroke:none;stroke-width:0.03527778"
         id="path352"
         inkscape:connector-curvature="0" />
      <path
         d="m -18.590501,141.38747 -5.300133,-11.37461 0.684036,-0.38877 5.387975,11.03031 9.4985399,-0.75424 0.09313,0.64205 -10.3635519,0.84526"
         style="fill:#9cc2e1;fill-opacity:1;fill-rule:nonzero;stroke:none;stroke-width:0.03527778"
         id="path354"
         inkscape:connector-curvature="0" />
      <path
         d="m -5.0981611,114.89774 c 0,0 -0.25894,-2.77424 3.570462,-3.21804 3.82905,-0.44379 3.869621,4.17513 3.869621,4.17513 l -2.08244796,-0.42122 -0.454377,-1.19345 -0.079023,1.14018 -1.55786704,-0.13335 0.104775,-0.83644 -0.454731,0.65335 -2.916412,-0.16616"
         style="fill:#aa00d4;fill-opacity:1;fill-rule:nonzero;stroke:none;stroke-width:0.03527778"
         id="path356"
         inkscape:connector-curvature="0" />
      <path
         d="m -7.1876661,138.76633 c 0,0 -1.551868,0.0314 -2.391127,-1.08761 -0.8396099,-1.11937 -1.1422929,0.0462 -0.224015,1.08761 0.91793,1.0414 1.362075,1.27565 1.362075,1.27565 0,0 -5.1159819,1.2901 -4.0460069,1.35678 1.06927,0.067 5.9697059,0.57785 5.9697059,0.57785 l -0.670632,-3.21028"
         style="fill:#f89d87;fill-opacity:1;fill-rule:nonzero;stroke:none;stroke-width:0.03527778"
         id="path358"
         inkscape:connector-curvature="0" />
      <path
         d="m -19.090034,148.93409 -0.757061,-7.97136 c 0,0 18.87925394,-0.6784 21.4474769,1.70003 2.568575,2.37878 1.145117,9.20362 -3.883377,8.76335 -5.028496,-0.44062 -16.8070389,-2.49202 -16.8070389,-2.49202"
         style="fill:#2c4497;fill-opacity:1;fill-rule:nonzero;stroke:none;stroke-width:0.03527778"
         id="path360"
         inkscape:connector-curvature="0" />
      <path
         d="m 1.7083319,131.66244 c 0.01447,0.0127 -0.102306,0.17145 -0.384175,0.29881 -0.273402,0.12664 -0.73377696,0.19579 -1.17545596,-0.006 -0.43956,-0.20638 -0.684742,-0.60219 -0.764469,-0.89324 -0.08502,-0.29703 -0.03916,-0.48859 -0.02045,-0.48577 0.02963,-7.2e-4 0.0321,0.18344 0.140052,0.44415 0.102658,0.25682 0.338315,0.59372 0.720373,0.77258 0.383117,0.17604 0.79233696,0.13794 1.05480396,0.0504 0.268464,-0.0864 0.410633,-0.20355 0.429331,-0.18062"
         style="fill:#c03050;fill-opacity:1;fill-rule:nonzero;stroke:none;stroke-width:0.03527778"
         id="path362"
         inkscape:connector-curvature="0" />
      <path
         d="m 5.3525259,153.93225 -0.45861,-1.70568 v 0 l 0.45861,1.70568 v 0 m 3.297766,-2.10785 -0.200376,-1.97097 c 0,2.6e-4 0,2.6e-4 0,2.6e-4 l 0.200376,1.97062"
         style="fill:#ccd2d7;fill-opacity:1;fill-rule:nonzero;stroke:none;stroke-width:0.03527778"
         id="path364"
         inkscape:connector-curvature="0" />
      <path
         d="m 5.3525259,153.93225 -0.45861,-1.70568 c 1.243893,-0.69568 2.433814,-1.4919 3.556,-2.37279 l 0.200376,1.97062 -3.297766,2.10785"
         style="fill:#8e7972;fill-opacity:1;fill-rule:nonzero;stroke:none;stroke-width:0.03527778"
         id="path366"
         inkscape:connector-curvature="0" />
      <path
         d="m 4.8939159,152.22657 v -8e-4 l 3.556,-2.37243 v 2.6e-4 c -1.122186,0.88089 -2.312107,1.67711 -3.556,2.37279 v 0"
         style="fill:#cfbbaa;fill-opacity:1;fill-rule:nonzero;stroke:none;stroke-width:0.03527778"
         id="path368"
         inkscape:connector-curvature="0" />
      <path
         d="m -17.905054,153.98693 -0.116064,-0.0547 0.492478,-1.84327 v 2.7e-4 l -0.376414,1.89759"
         style="fill:#ccd2d7;fill-opacity:1;fill-rule:nonzero;stroke:none;stroke-width:0.03527778"
         id="path370"
         inkscape:connector-curvature="0" />
      <path
         d="m -15.033443,155.33454 -2.871611,-1.34761 0.376414,-1.89759 c 0.962731,0.63605 1.986845,1.1811 3.053645,1.633 l -0.558448,1.6122"
         style="fill:#8e7972;fill-opacity:1;fill-rule:nonzero;stroke:none;stroke-width:0.03527778"
         id="path372"
         inkscape:connector-curvature="0" />
      <path
         d="m -14.474995,153.72234 c -1.0668,-0.4519 -2.090914,-0.99695 -3.053645,-1.633 v -2.7e-4 -2.6e-4 l 3.053997,1.63265 -3.43e-4,0.001"
         style="fill:#cfbbaa;fill-opacity:1;fill-rule:nonzero;stroke:none;stroke-width:0.03527778"
         id="path374"
         inkscape:connector-curvature="0" />
      <path
         d="m 11.285542,137.88721 c 0.02222,0.0402 -0.554212,0.36477 -1.4174601,0.98354 -0.107598,0.0783 -0.219427,0.16016 -0.33655,0.24554 -0.116768,0.0854 -0.232481,0.18238 -0.355248,0.27799 -0.248354,0.18873 -0.497768,0.40992 -0.764468,0.63711 -0.522111,0.46743 -1.07315,1.00648 -1.609374,1.61149 -0.531635,0.6096 -0.995537,1.22555 -1.39206,1.80305 -0.191206,0.29351 -0.378177,0.56938 -0.533752,0.83996 -0.07867,0.13441 -0.160514,0.26141 -0.230013,0.38806 -0.0695,0.127 -0.136525,0.24906 -0.200025,0.36548 -0.50306,0.93556 -0.75071,1.54869 -0.79375,1.53176 -0.01693,-0.006 0.02928,-0.16546 0.128413,-0.44874 0.04798,-0.14217 0.111829,-0.31432 0.198261,-0.50906 0.08467,-0.19543 0.174625,-0.42156 0.298098,-0.6604 0.05962,-0.12065 0.122412,-0.24659 0.18697,-0.37782 0.06632,-0.13088 0.143933,-0.26211 0.219782,-0.40076 0.148873,-0.27904 0.331964,-0.56338 0.520348,-0.86501 0.390877,-0.59372 0.856543,-1.22414 1.396293,-1.84361 0.54469,-0.6149 1.10984,-1.15711 1.648884,-1.62102 0.274814,-0.22578 0.533048,-0.44309 0.790926,-0.62688 0.127355,-0.0931 0.24765,-0.18698 0.369359,-0.26917 0.121708,-0.0815 0.238831,-0.15946 0.350663,-0.23425 0.220837,-0.15275 0.4332101,-0.27128 0.6163021,-0.38029 0.182385,-0.11077 0.345016,-0.19579 0.479425,-0.26176 0.268464,-0.13476 0.420158,-0.20144 0.428976,-0.18521"
         style="fill:#d0ae96;fill-opacity:1;fill-rule:nonzero;stroke:none;stroke-width:0.03527778"
         id="path376"
         inkscape:connector-curvature="0" />
      <path
         d="m 13.198305,127.23579 c 0.0769,0.0399 -0.778229,1.45239 -1.205089,3.40854 -0.446969,1.95262 -0.274461,3.59445 -0.361244,3.59763 -0.03211,0.004 -0.117123,-0.40076 -0.14464,-1.0668 -0.01482,-0.33303 -0.0067,-0.73061 0.02752,-1.17052 0.03916,-0.43921 0.106892,-0.92075 0.216606,-1.41887 0.112887,-0.49671 0.256117,-0.96132 0.408162,-1.37548 0.156282,-0.41275 0.318207,-0.77576 0.473782,-1.07068 0.308327,-0.59126 0.55739,-0.92075 0.584906,-0.90382"
         style="fill:#d0ae96;fill-opacity:1;fill-rule:nonzero;stroke:none;stroke-width:0.03527778"
         id="path378"
         inkscape:connector-curvature="0" />
      <path
         d="m 11.305299,121.32182 c -0.0011,-0.005 0.05221,-0.0222 0.15875,-0.0522 0.107243,-0.0258 0.262818,-0.0843 0.476602,-0.11571 0.421216,-0.0871 1.063273,-0.16263 1.883481,-0.0804 0.40781,0.048 0.861129,0.12453 1.33985,0.27587 0.476954,0.15311 0.982837,0.36618 1.483784,0.67204 0.50165,0.3041 0.993775,0.70944 1.424868,1.21991 0.4318,0.51047 0.784932,1.13347 1.037873,1.82915 0.503767,1.39665 0.564796,3.07657 0.183796,4.76673 -0.375002,1.69792 -1.172279,3.38385 -2.078212,5.08635 -0.906992,1.70568 -1.889125,3.48262 -3.00849,5.26592 -1.11901,1.78223 -2.378075,3.57152 -3.839634,5.2645 -1.4608511,1.69368 -3.0635201,3.20005 -4.7695531,4.4457 -1.704272,1.24707 -3.514373,2.22744 -5.34034996,2.89208 -0.452615,0.17709 -0.91793,0.29704 -1.36878004,0.44062 -0.224367,0.0759 -0.456493,0.11712 -0.682625,0.17497 -0.227187,0.054 -0.45226,0.1076 -0.676275,0.16087 -0.453318,0.0755 -0.897818,0.16651 -1.33985,0.22543 -0.221543,0.0257 -0.441325,0.0512 -0.659342,0.0762 -0.217662,0.0268 -0.433562,0.0519 -0.649816,0.06 -1.721554,0.12629 -3.333044,0.0423 -4.785429,-0.14323 -1.4548559,-0.18098 -2.7491979,-0.48049 -3.8682089,-0.79305 -1.122892,-0.30374 -2.063044,-0.65228 -2.827867,-0.94015 -0.758119,-0.30621 -1.342319,-0.55421 -1.728258,-0.74471 -0.192264,-0.0928 -0.339725,-0.16369 -0.440972,-0.21273 -0.09842,-0.049 -0.148167,-0.0765 -0.14605,-0.0808 0.0021,-0.004 0.05539,0.0148 0.157691,0.0561 0.103717,0.043 0.254353,0.10583 0.451203,0.18803 0.392642,0.17462 0.982134,0.4064 1.743781,0.69638 0.767997,0.27235 1.709208,0.60467 2.82963,0.89324 1.117248,0.29739 2.407003,0.58208 3.8523339,0.74965 1.443567,0.17215 3.04165,0.24412 4.745212,0.10971 0.213432,-0.009 0.427215,-0.0353 0.642763,-0.0628 0.215194,-0.0261 0.432504,-0.0526 0.651227,-0.079 0.437092,-0.06 0.875948,-0.15275 1.323975,-0.22895 0.22084,-0.0536 0.44309,-0.1076 0.667457,-0.16192 0.222953,-0.0582 0.451908,-0.0998 0.673452,-0.17569 0.44450004,-0.14358 0.90381604,-0.26387 1.34972604,-0.44026 1.80022496,-0.66252 3.58598796,-1.63513 5.27049996,-2.87197 1.685925,-1.23543 3.272367,-2.72909 4.7212251,-4.40866 1.450624,-1.67993 2.70369,-3.45722 3.820584,-5.22923 1.117248,-1.77341 2.101498,-3.54259 3.012723,-5.24192 0.90946,-1.6951 1.702858,-3.35668 2.079625,-5.02003 0.38241,-1.65312 0.332317,-3.29353 -0.145698,-4.65384 -0.240594,-0.67769 -0.577498,-1.28517 -0.990952,-1.7833 -0.412398,-0.49918 -0.88618,-0.89923 -1.372307,-1.20191 -0.485775,-0.30445 -0.978251,-0.52035 -1.443918,-0.67804 -0.46708,-0.15557 -0.91158,-0.23812 -1.312685,-0.29351 -0.805392,-0.097 -1.441805,-0.0395 -1.862315,0.03 -0.213432,0.0226 -0.370065,0.072 -0.479073,0.0889 -0.10795,0.0212 -0.164042,0.03 -0.165452,0.0258"
         style="fill:#d0ae96;fill-opacity:1;fill-rule:nonzero;stroke:none;stroke-width:0.03527778"
         id="path380"
         inkscape:connector-curvature="0" />
    </g>
  </g>
</svg>
