<svg width="52" height="48" viewBox="0 0 52 48" fill="none" xmlns="http://www.w3.org/2000/svg">
<path d="M40.3897 0H10.6289C4.7596 0 0 4.478 0 10V38C0 43.522 4.7596 48 10.6289 48H40.3897C46.261 48 51.0185 43.522 51.0185 38V10C51.0185 4.478 46.261 0 40.3897 0ZM17.0062 38H10.6289V16H17.0062V38ZM13.8175 13.464C11.764 13.464 10.0974 11.884 10.0974 9.936C10.0974 7.988 11.764 6.408 13.8175 6.408C15.871 6.408 17.5376 7.988 17.5376 9.936C17.5376 11.884 15.8731 13.464 13.8175 13.464ZM42.5154 38H36.1381V26.792C36.1381 20.056 27.635 20.566 27.635 26.792V38H21.2577V16H27.635V19.53C30.6026 14.358 42.5154 13.976 42.5154 24.482V38Z" fill="#FCD8BC"/>
</svg>
